<svg width="210" height="433" viewBox="0 0 210 433" fill="none" xmlns="http://www.w3.org/2000/svg">
<g filter="url(#filter0_f_380_2826)">
<g clip-path="url(#clip0_380_2826)">
<path d="M112.629 159.277C115.373 161.33 115.292 166.493 112.405 170.844C109.539 175.174 105.006 177.065 102.241 175.032C99.4963 173.019 99.5573 167.835 102.424 163.464C105.27 159.114 109.844 157.264 112.629 159.277ZM127.164 173.812C129.197 176.617 127.327 181.171 123.017 184.058C118.626 186.904 113.463 186.985 111.43 184.221C109.376 181.436 111.267 176.902 115.617 174.056C119.968 171.169 125.132 171.088 127.164 173.812ZM92.4013 157.752C95.715 159.073 97.0567 164.034 95.5524 168.831C93.8854 173.588 89.9821 176.434 86.6888 175.133C83.3954 173.832 82.0537 168.913 83.6394 164.115C85.2251 159.317 89.1893 156.491 92.4013 157.752ZM128.994 194.345C130.255 197.557 127.429 201.521 122.631 203.107C117.833 204.692 112.914 203.351 111.613 200.057C110.311 196.764 113.158 192.861 117.915 191.194C122.712 189.689 127.673 191.031 128.994 194.345ZM103.684 212.865C101.854 214.857 98.2765 215.507 95.7353 214.552C90.4294 212.58 89.5756 204.814 85.53 200.769C81.4845 196.723 73.5357 195.971 71.7671 190.584C70.7303 187.555 71.9704 183.509 74.4302 181.578C77.8252 178.915 83.0905 180.927 87.4613 180.866C93.1942 180.866 100.614 177.512 104.701 181.598C108.766 185.664 105.615 193.125 105.412 198.817C105.188 203.554 106.855 209.409 103.684 212.865Z" fill="#F2F2F2" fill-opacity="0.52"/>
</g>
<g clip-path="url(#clip1_380_2826)">
<path d="M15.4797 347.679C18.2242 349.732 18.1429 354.896 15.2561 359.247C12.3897 363.577 7.85624 365.467 5.09146 363.434C2.347 361.422 2.40799 356.238 5.27442 351.867C8.12053 347.517 12.6946 345.667 15.4797 347.679ZM30.0152 362.215C32.0481 365.02 30.1778 369.574 25.868 372.461C21.4769 375.307 16.3132 375.388 14.2803 372.623C12.227 369.838 14.1177 365.305 18.4681 362.459C22.8186 359.572 27.9823 359.49 30.0152 362.215ZM-4.74793 346.154C-1.43425 347.476 -0.0925187 352.436 -1.59689 357.234C-3.26389 361.991 -7.16712 364.837 -10.4605 363.536C-13.7538 362.235 -15.0956 357.315 -13.5099 352.518C-11.9242 347.72 -7.95996 344.894 -4.74793 346.154ZM31.8448 382.747C33.1053 385.959 30.2795 389.923 25.4818 391.509C20.684 393.095 15.7643 391.753 14.4633 388.46C13.1622 385.166 16.0083 381.263 20.7654 379.596C25.5631 378.092 30.5234 379.434 31.8448 382.747ZM6.53484 401.267C4.7052 403.259 1.12724 403.91 -1.41392 402.955C-6.71988 400.983 -7.57371 393.217 -11.6192 389.171C-15.6648 385.126 -23.6135 384.374 -25.3822 378.986C-26.419 375.957 -25.1789 371.912 -22.719 369.98C-19.3241 367.317 -14.0588 369.33 -9.68796 369.269C-3.95509 369.269 3.46511 365.915 7.55131 370.001C11.6172 374.067 8.46612 381.527 8.26283 387.22C8.0392 391.956 9.70621 397.811 6.53484 401.267Z" fill="#F2F2F2" fill-opacity="0.52"/>
</g>
<path d="M96.0508 32.151C99.4663 32.4379 102.134 36.86 101.991 42.0792C101.855 47.2703 99.012 51.276 95.5901 51.0171C92.1961 50.7646 89.5008 46.3361 89.6155 41.1104C89.7237 35.9128 92.6224 31.9201 96.0508 32.151ZM116.08 36.7751C119.291 38.077 120.118 42.9299 117.993 47.6619C115.777 52.4024 111.441 55.2077 108.252 53.9403C105.035 52.6665 104.236 47.82 106.417 43.101C108.577 38.3475 112.913 35.5422 116.08 36.7751ZM78.0888 41.577C81.5992 40.9416 85.3657 44.4372 86.6323 49.3031C87.7395 54.2207 85.9375 58.7027 82.4552 59.3446C78.9728 59.9864 75.2279 56.5253 74.0302 51.6163C72.8325 46.7073 74.697 42.2102 78.0888 41.577ZM128.512 53.2182C131.283 55.2742 130.988 60.1335 127.759 64.0206C124.531 67.9078 119.648 69.377 116.799 67.2735C113.951 65.1701 114.296 60.3517 117.447 56.4172C120.718 52.599 125.636 51.1083 128.512 53.2182ZM116.862 82.3363C116.367 84.9954 113.677 87.4431 111.016 87.9794C105.471 89.1189 100.632 82.9856 95.0571 81.6986C89.4825 80.4116 82.3429 83.9859 77.9882 80.3544C75.5038 78.3351 74.4117 74.2471 75.4743 71.3058C76.9422 67.2482 82.4739 66.1648 86.1482 63.7969C91.01 60.759 95.5252 53.9822 101.156 55.2822C106.758 56.5756 108.04 64.5726 110.884 69.5076C113.204 73.6431 117.721 77.7249 116.862 82.3363Z" fill="#F2F2F2" fill-opacity="0.52"/>
<g clip-path="url(#clip2_380_2826)">
<path d="M-7.17063 217.882C-3.75513 218.169 -1.08778 222.591 -1.23049 227.81C-1.36674 233.001 -4.20943 237.007 -7.63139 236.748C-11.0253 236.496 -13.7207 232.067 -13.606 226.841C-13.4978 221.644 -10.5991 217.651 -7.17063 217.882ZM12.8588 222.506C16.0694 223.808 16.8965 228.661 14.7713 233.393C12.5556 238.133 8.21968 240.939 5.03054 239.671C1.81339 238.397 1.01438 233.551 3.19559 228.832C5.35525 224.078 9.69117 221.273 12.8588 222.506ZM-25.1326 227.308C-21.6222 226.673 -17.8558 230.168 -16.5892 235.034C-15.482 239.952 -17.2839 244.434 -20.7663 245.076C-24.2487 245.717 -27.9936 242.256 -29.1913 237.347C-30.3889 232.438 -28.5245 227.941 -25.1326 227.308ZM25.291 238.949C28.062 241.005 27.7663 245.864 24.5379 249.752C21.3095 253.639 16.4264 255.108 13.5778 253.004C10.7292 250.901 11.0744 246.083 14.2253 242.148C17.4968 238.33 22.4144 236.839 25.291 238.949ZM13.641 268.067C13.1451 270.726 10.4556 273.174 7.79424 273.71C2.24957 274.85 -2.58977 268.717 -8.16438 267.43C-13.739 266.143 -20.8785 269.717 -25.2332 266.085C-27.7177 264.066 -28.8098 259.978 -27.7472 257.037C-26.2793 252.979 -20.7476 251.896 -17.0732 249.528C-12.2115 246.49 -7.69632 239.713 -2.06568 241.013C3.53695 242.307 4.81836 250.304 7.66237 255.239C9.98281 259.374 14.4991 263.456 13.641 268.067Z" fill="#F2F2F2" fill-opacity="0.52"/>
</g>
</g>
<defs>
<filter id="filter0_f_380_2826" x="-47.5866" y="14.9467" width="201.53" height="410.64" filterUnits="userSpaceOnUse" color-interpolation-filters="sRGB">
<feFlood flood-opacity="0" result="BackgroundImageFix"/>
<feBlend mode="normal" in="SourceGraphic" in2="BackgroundImageFix" result="shape"/>
<feGaussianBlur stdDeviation="1.7" result="effect1_foregroundBlur_380_2826"/>
</filter>
<clipPath id="clip0_380_2826">
<rect width="69" height="69" fill="white" transform="translate(101.753 136.203) rotate(45)"/>
</clipPath>
<clipPath id="clip1_380_2826">
<rect width="69" height="69" fill="white" transform="translate(4.60381 324.605) rotate(45)"/>
</clipPath>
<clipPath id="clip2_380_2826">
<rect width="69" height="69" fill="white" transform="translate(-28.6211 204.078) rotate(13)"/>
</clipPath>
</defs>
</svg>
