<svg width="255" height="387" viewBox="0 0 255 387" fill="none" xmlns="http://www.w3.org/2000/svg">
<g filter="url(#filter0_f_571_415)">
<g clip-path="url(#clip0_571_415)">
<path d="M177.544 249.206C180.157 247.648 180.564 243.082 178.42 238.974C176.291 234.886 172.465 232.796 169.836 234.334C167.226 235.856 166.799 240.438 168.924 244.562C171.033 248.666 174.899 250.724 177.544 249.206ZM191.723 237.723C193.778 235.436 192.549 231.242 189.013 228.294C185.401 225.375 180.85 224.824 178.799 227.076C176.728 229.344 177.977 233.521 181.553 236.437C185.125 239.389 189.676 239.939 191.723 237.723ZM159.547 248.675C162.595 247.816 164.239 243.562 163.356 239.187C162.326 234.833 159.145 231.959 156.117 232.802C153.089 233.645 151.448 237.863 152.403 242.245C153.358 246.627 156.595 249.489 159.547 248.675ZM195.243 219.769C196.654 217.05 194.527 213.289 190.439 211.444C186.351 209.599 181.884 210.327 180.43 213.114C178.976 215.9 181.126 219.609 185.171 221.522C189.266 223.295 193.769 222.571 195.243 219.769ZM174.62 201.073C173.189 199.144 170.091 198.238 167.76 198.846C162.893 200.094 161.419 206.87 157.473 210.066C153.526 213.261 146.44 213.188 144.379 217.779C143.183 220.357 143.902 224.043 145.894 225.976C148.644 228.642 153.478 227.354 157.331 227.813C162.391 228.345 168.63 231.994 172.616 228.766C176.582 225.555 174.493 218.676 174.842 213.633C175.084 209.431 177.098 204.418 174.62 201.073Z" fill="#F2F2F2" fill-opacity="0.52"/>
</g>
<g clip-path="url(#clip1_571_415)">
<path d="M109.268 73.8865C111.881 72.3287 112.288 67.7631 110.144 63.655C108.015 59.5668 104.189 57.4773 101.56 59.0153C98.9505 60.5372 98.5234 65.1189 100.648 69.243C102.757 73.3473 106.623 75.4046 109.268 73.8865ZM123.447 62.4044C125.502 60.1166 124.274 55.9234 120.737 52.9753C117.125 50.0556 112.574 49.5048 110.523 51.7567C108.453 54.0246 109.701 58.2018 113.277 61.1177C116.85 64.0695 121.4 64.6204 123.447 62.4044ZM91.2713 73.3557C94.3189 72.4967 95.9635 68.2426 95.0807 63.868C94.0505 59.5142 90.8691 56.6398 87.8413 57.4827C84.8135 58.3256 83.1727 62.5439 84.1273 66.926C85.0819 71.3081 88.319 74.1703 91.2713 73.3557ZM126.967 44.4496C128.378 41.7313 126.251 37.9698 122.163 36.125C118.075 34.2802 113.608 35.0081 112.154 37.7945C110.7 40.5809 112.85 44.2904 116.895 46.2032C120.99 47.9762 125.493 47.2521 126.967 44.4496ZM106.344 25.7535C104.914 23.8252 101.816 22.919 99.484 23.5266C94.6174 24.775 93.1432 31.5508 89.1968 34.7465C85.2504 37.9423 78.1641 37.8688 76.1031 42.4601C74.9069 45.0377 75.6262 48.7238 77.6184 50.6568C80.3681 53.3226 85.2026 52.0345 89.0551 52.4939C94.1156 53.0258 100.354 56.6751 104.34 53.4473C108.307 50.2355 106.217 43.3573 106.566 38.3139C106.808 34.1119 108.823 29.0984 106.344 25.7535Z" fill="#F2F2F2" fill-opacity="0.52"/>
</g>
<path d="M151.116 359.884C154.157 359.947 156.922 356.291 157.28 351.671C157.641 347.076 155.504 343.276 152.459 343.187C149.44 343.095 146.65 346.754 146.266 351.378C145.879 355.976 148.068 359.769 151.116 359.884ZM169.225 357.66C172.18 356.809 173.36 352.602 171.923 348.228C170.407 343.837 166.84 340.959 163.907 341.782C160.949 342.608 159.794 346.812 161.282 351.18C162.747 355.576 166.314 358.454 169.225 357.66ZM136.135 349.897C139.174 350.783 142.823 348.047 144.393 343.869C145.827 339.631 144.652 335.508 141.637 334.618C138.623 333.728 134.996 336.436 133.484 340.658C131.971 344.88 133.199 349.023 136.135 349.897ZM181.724 344.299C184.361 342.741 184.551 338.424 182.062 334.694C179.573 330.963 175.399 329.213 172.689 330.805C169.979 332.398 169.837 336.683 172.253 340.448C174.787 344.122 178.99 345.894 181.724 344.299ZM174.142 317.515C173.951 315.122 171.804 312.712 169.505 311.991C164.716 310.471 159.875 315.436 154.835 316.055C149.795 316.674 143.824 312.856 139.644 315.658C137.263 317.21 135.92 320.717 136.585 323.412C137.504 327.13 142.287 328.599 145.31 331.03C149.32 334.163 152.677 340.564 157.768 339.939C162.833 339.317 164.706 332.377 167.675 328.284C170.107 324.849 174.472 321.665 174.142 317.515Z" fill="#F2F2F2" fill-opacity="0.52"/>
<path d="M77.2319 186.359C80.2734 186.423 83.0382 182.767 83.3965 178.147C83.7578 173.552 81.6202 169.752 78.5755 169.663C75.5562 169.571 72.7661 173.23 72.3825 177.854C71.9958 182.452 74.1841 186.245 77.2319 186.359ZM95.3412 184.136C98.2961 183.285 99.4764 179.078 98.0394 174.703C96.5234 170.313 92.9563 167.435 90.0236 168.258C87.0656 169.084 85.9107 173.287 87.3982 177.655C88.8636 182.052 92.4307 184.93 95.3412 184.136ZM62.2511 176.372C65.2908 177.259 68.9398 174.523 70.5093 170.345C71.9429 166.107 70.7681 161.983 67.7537 161.094C64.7393 160.204 61.1125 162.912 59.5999 167.134C58.0872 171.356 59.3158 175.499 62.2511 176.372ZM107.841 170.775C110.478 169.217 110.667 164.9 108.178 161.169C105.689 157.439 101.515 155.689 98.8054 157.281C96.0958 158.874 95.9535 163.159 98.3698 166.924C100.903 170.598 105.106 172.37 107.841 170.775ZM100.259 143.991C100.068 141.598 97.9207 139.187 95.6212 138.467C90.8326 136.947 85.9918 141.912 80.9516 142.531C75.9114 143.15 69.9408 139.332 65.7599 142.134C63.3795 143.686 62.0362 147.193 62.7013 149.888C63.6206 153.606 68.403 155.075 71.4267 157.506C75.4364 160.639 78.7933 167.04 83.8842 166.415C88.9497 165.793 90.8228 158.853 93.7911 154.76C96.223 151.325 100.588 148.141 100.259 143.991Z" fill="#F2F2F2" fill-opacity="0.52"/>
</g>
<defs>
<filter id="filter0_f_571_415" x="46.1529" y="3.70889" width="170.644" height="369.77" filterUnits="userSpaceOnUse" color-interpolation-filters="sRGB">
<feFlood flood-opacity="0" result="BackgroundImageFix"/>
<feBlend mode="normal" in="SourceGraphic" in2="BackgroundImageFix" result="shape"/>
<feGaussianBlur stdDeviation="1.7" result="effect1_foregroundBlur_571_415"/>
</filter>
<clipPath id="clip0_571_415">
<rect width="61.2429" height="61.2429" fill="white" transform="matrix(0.777146 -0.62932 -0.62932 -0.777146 165.803 268.564)"/>
</clipPath>
<clipPath id="clip1_571_415">
<rect width="61.2429" height="61.2429" fill="white" transform="matrix(0.777146 -0.62932 -0.62932 -0.777146 97.5269 93.2449)"/>
</clipPath>
</defs>
</svg>
