<svg width="790" height="791" viewBox="0 0 790 791" fill="none" xmlns="http://www.w3.org/2000/svg">
<rect y="0.800049" width="789.6" height="789.6" rx="120.378" fill="#DD4319"/>
<path d="M408.868 184.046C300.601 183.913 192.389 230.811 139.561 337.915C202.76 327.136 262.25 344.481 318.494 374.619C394.259 331.882 474.734 326.183 550.053 354.243C561.403 309.941 596.041 285.164 646.637 273.818C588.328 216.568 498.579 184.16 408.87 184.048L408.868 184.046ZM486.73 360.449C474.421 360.449 464.498 370.431 464.498 383.221C464.498 396.013 474.422 405.994 486.73 405.994C499.037 405.994 508.962 396.013 508.962 383.223C508.962 370.435 499.039 360.452 486.73 360.452V360.449ZM397.332 364.97C385.023 364.97 375.1 374.951 375.1 387.742C375.1 400.529 385.024 410.511 397.332 410.511C409.638 410.511 419.564 400.529 419.564 387.74C419.564 374.947 409.641 364.967 397.332 364.967V364.97ZM614.825 369.491C610.33 369.61 605.347 370.931 599.776 373.606C587.046 379.722 571.973 393.841 558.08 417.665L554.572 423.67L547.723 422.522C518.455 417.649 497.162 422.317 478.566 435.275C464.149 445.32 451.258 461.054 439.062 482.099C462.715 476.745 487.13 472.74 513.01 473.125L514.764 473.16C522.518 467.193 530.616 459.867 539.324 450.691C533.438 464.728 527.615 478.921 519.959 491.616C519.941 491.651 519.911 491.681 519.892 491.716C508.168 513.245 483.814 530.657 459.877 545.39C492.292 568.924 526.743 574.064 557.034 565.8C590.776 556.594 619.512 530.624 633.211 492.763C644.97 460.269 648.516 433.315 646.772 413.282C645.03 393.249 638.071 380.58 630.072 374.554C626.075 371.542 621.695 369.776 616.715 369.528C616.086 369.492 615.456 369.481 614.826 369.495L614.825 369.491ZM174.912 408.994C156.881 409.494 146.522 416.428 141.144 427.616C135.405 439.551 135.649 458.674 146.339 482.571C157.028 506.469 177.899 534.626 210.941 563.469C249.313 596.961 297.044 608 340.013 597.237C379.511 587.345 415.221 559.131 436.226 510.977C413.895 510.491 393.401 509.612 375.064 504.197C374.924 504.165 374.794 504.127 374.658 504.095C342.119 496.325 322.63 480.228 297.774 455.617C316.521 465.532 332.821 471.001 347.433 473.531L347.57 473.463C375.381 457.242 388.921 451.02 411.802 444.147C359.462 409.926 314.344 415.356 272.305 440.602L269.91 442.053H264.141L261.643 440.469C227.484 418.544 198.958 409.385 178.621 408.993C177.384 408.965 176.146 408.965 174.909 408.993L174.912 408.994Z" fill="white"/>
</svg>
