<svg width="1818" height="413" viewBox="0 0 1818 413" fill="none" xmlns="http://www.w3.org/2000/svg">
<rect x="0.52002" width="412.8" height="412.8" rx="62.9333" fill="#DD4319"/>
<path d="M214.274 95.8002C157.673 95.7308 101.1 120.249 73.482 176.242C106.522 170.607 137.623 179.675 167.027 195.431C206.637 173.089 248.709 170.109 288.086 184.778C294.019 161.618 312.128 148.664 338.579 142.732C308.096 112.803 261.175 95.86 214.276 95.8013L214.274 95.8002ZM254.981 188.023C248.546 188.023 243.358 193.242 243.358 199.928C243.358 206.616 248.546 211.834 254.981 211.834C261.414 211.834 266.603 206.616 266.603 199.929C266.603 193.243 261.416 188.025 254.981 188.025V188.023ZM208.243 190.387C201.808 190.387 196.621 195.605 196.621 202.292C196.621 208.977 201.809 214.195 208.243 214.195C214.677 214.195 219.866 208.977 219.866 202.29C219.866 195.603 214.678 190.385 208.243 190.385V190.387ZM321.948 192.75C319.598 192.812 316.993 193.503 314.081 194.902C307.426 198.099 299.545 205.48 292.282 217.935L290.448 221.075L286.868 220.475C271.566 217.927 260.435 220.367 250.713 227.142C243.175 232.393 236.436 240.619 230.06 251.621C242.425 248.822 255.19 246.728 268.72 246.93L269.637 246.948C273.691 243.828 277.924 239.999 282.476 235.201C279.399 242.54 276.355 249.96 272.353 256.597C272.343 256.615 272.328 256.631 272.318 256.649C266.188 267.904 253.456 277.007 240.942 284.709C257.888 297.013 275.899 299.7 291.735 295.38C309.376 290.567 324.399 276.99 331.561 257.196C337.708 240.209 339.562 226.117 338.65 215.644C337.739 205.171 334.101 198.547 329.919 195.397C327.829 193.823 325.54 192.899 322.936 192.769C322.607 192.751 322.278 192.745 321.949 192.752L321.948 192.75ZM91.9631 213.402C82.5369 213.664 77.1211 217.289 74.3094 223.138C71.3092 229.377 71.4367 239.375 77.0252 251.868C82.6136 264.362 93.5247 279.082 110.799 294.161C130.86 311.671 155.814 317.442 178.277 311.815C198.927 306.643 217.596 291.893 228.577 266.718C216.903 266.464 206.189 266.005 196.602 263.174C196.529 263.157 196.461 263.137 196.39 263.12C179.379 259.059 169.19 250.643 156.195 237.777C165.996 242.96 174.518 245.819 182.156 247.142L182.228 247.106C196.767 238.626 203.846 235.373 215.808 231.78C188.445 213.889 164.858 216.728 142.88 229.927L141.628 230.685H138.612L137.306 229.857C119.448 218.395 104.535 213.607 93.9023 213.402C93.2556 213.387 92.6086 213.387 91.9619 213.402L91.9631 213.402Z" fill="white"/>
<path d="M663.477 201.285C671.595 210.917 675.654 221.718 675.654 233.69C675.379 247.45 670.632 259.008 661.413 268.365C652.331 277.584 641.254 282.194 628.182 282.194H573.899C564.267 282.194 558.626 279.579 556.974 274.35C556.149 272.011 555.736 268.434 555.736 263.618V149.066C555.736 145.763 555.805 143.355 555.942 141.841C556.218 140.328 556.906 138.539 558.006 136.475C559.933 132.76 565.299 130.902 574.106 130.902H626.118C638.778 130.902 649.373 135.306 657.904 144.112C666.848 153.056 671.32 163.789 671.32 176.31C671.32 185.392 668.706 193.717 663.477 201.285ZM639.122 231.626C639.122 228.323 638.709 225.709 637.883 223.782C637.195 221.856 635.957 220.48 634.168 219.654C631.416 218.554 627.563 218.003 622.61 218.003C617.656 218.003 613.941 217.04 611.464 215.114C608.987 213.187 607.749 209.266 607.749 203.349C607.749 197.294 608.987 193.304 611.464 191.378C614.078 189.451 618.344 188.488 624.261 188.488C629.765 188.488 633.067 187.043 634.168 184.154C634.581 182.64 634.787 180.163 634.787 176.723C634.787 173.283 633.618 170.875 631.278 169.499C629.077 168.123 625.706 167.435 621.165 167.435H592.269V245.661H626.118C634.787 245.661 639.122 240.982 639.122 231.626ZM689.17 191.79C689.17 188.626 689.239 186.286 689.377 184.773C689.652 183.122 690.271 181.264 691.234 179.2C693.161 175.622 698.527 173.834 707.334 173.834C713.938 173.834 718.617 175.003 721.369 177.342C723.708 179.269 724.946 182.227 725.084 186.218C725.222 187.593 725.29 189.589 725.29 192.203V264.443C725.29 267.608 725.153 270.016 724.878 271.667C724.74 273.181 724.121 274.97 723.02 277.034C721.231 280.611 715.934 282.4 707.127 282.4C698.458 282.4 693.161 280.542 691.234 276.827C690.271 274.763 689.652 272.974 689.377 271.461C689.239 269.947 689.17 267.539 689.17 264.237V191.79ZM723.02 153.606C722.057 155.533 720.268 156.909 717.654 157.734C715.039 158.56 711.53 158.973 707.127 158.973C702.862 158.973 699.422 158.56 696.807 157.734C694.193 156.909 692.335 155.464 691.234 153.4C690.271 151.336 689.652 149.547 689.377 148.034C689.239 146.382 689.17 143.974 689.17 140.809C689.17 137.645 689.239 135.305 689.377 133.792C689.652 132.141 690.271 130.352 691.234 128.425C693.161 124.71 698.527 122.853 707.334 122.853C716.002 122.853 721.231 124.71 723.02 128.425C724.121 130.49 724.74 132.347 724.878 133.998C725.153 135.512 725.29 137.851 725.29 141.016C725.29 144.181 725.153 146.589 724.878 148.24C724.74 149.753 724.121 151.542 723.02 153.606ZM775.834 228.117C775.834 233.896 777.761 238.437 781.613 241.739C785.466 244.904 789.525 246.486 793.791 246.486C798.194 246.486 802.253 245.248 805.969 242.771C809.821 240.157 812.917 238.85 815.257 238.85C819.385 238.85 824.407 242.496 830.324 249.789C833.489 253.779 835.071 257.357 835.071 260.522C835.071 265.75 831.287 270.635 823.719 275.176C815.876 280.68 806.244 283.432 794.823 283.432C782.026 283.432 769.711 278.822 757.877 269.603C752.236 265.2 747.626 259.352 744.049 252.059C740.471 244.629 738.682 236.51 738.682 227.704C738.682 218.76 740.471 210.71 744.049 203.555C747.626 196.262 752.236 190.414 757.877 186.011C769.298 176.929 781.476 172.389 794.41 172.389C799.639 172.389 804.73 173.145 809.684 174.659C814.637 176.035 818.284 177.411 820.623 178.787L823.925 180.851C826.402 182.502 828.329 183.81 829.705 184.773C833.282 187.525 835.071 190.69 835.071 194.267C835.071 197.707 833.626 201.629 830.737 206.032C825.783 213.6 821.036 217.384 816.495 217.384C813.881 217.384 810.165 215.87 805.349 212.843C802.873 210.504 799.295 209.334 794.617 209.334C790.076 209.334 785.81 210.986 781.82 214.288C777.829 217.59 775.834 222.2 775.834 228.117ZM907.464 174.04C921.224 174.04 932.645 179.269 941.727 189.726C950.946 200.184 955.555 212.981 955.555 228.117V264.443C955.555 267.608 955.418 270.016 955.143 271.667C955.005 273.181 954.386 274.97 953.285 277.034C951.496 280.611 946.199 282.4 937.392 282.4C928.999 282.4 923.77 280.611 921.706 277.034C920.605 274.97 919.917 273.112 919.642 271.461C919.504 269.81 919.435 267.333 919.435 264.03V227.91C919.435 222.269 917.853 217.866 914.688 214.701C911.523 211.536 907.464 209.954 902.511 209.954C897.695 209.954 893.429 211.467 889.714 214.494C885.999 217.384 883.866 220.686 883.315 224.402V264.443C883.315 267.608 883.178 270.016 882.903 271.667C882.765 273.181 882.146 274.97 881.045 277.034C879.256 280.611 873.959 282.4 865.152 282.4C856.483 282.4 851.186 280.542 849.259 276.827C848.296 274.763 847.677 272.974 847.402 271.461C847.264 269.947 847.195 267.539 847.195 264.237V140.809C847.195 137.645 847.264 135.305 847.402 133.792C847.677 132.141 848.296 130.352 849.259 128.425C851.186 124.71 856.552 122.853 865.359 122.853C874.027 122.853 879.256 124.71 881.045 128.425C882.146 130.49 882.765 132.347 882.903 133.998C883.178 135.512 883.315 137.851 883.315 141.016V186.63C890.195 178.237 898.245 174.04 907.464 174.04ZM969.068 228.117C969.068 211.605 974.847 197.982 986.406 187.249C997.964 176.517 1011.17 171.15 1026.03 171.15C1040.9 171.15 1054.04 176.517 1065.46 187.249C1076.88 197.845 1082.59 211.398 1082.59 227.91C1082.59 239.331 1079.63 249.514 1073.71 258.458C1067.8 267.264 1060.57 273.8 1052.04 278.066C1043.65 282.194 1034.91 284.258 1025.83 284.258C1016.75 284.258 1007.94 282.056 999.409 277.653C990.878 273.112 983.654 266.507 977.737 257.838C971.958 249.032 969.068 239.125 969.068 228.117ZM1012.21 242.978C1016.61 246.28 1021.08 247.931 1025.62 247.931C1030.16 247.931 1034.7 246.211 1039.24 242.771C1043.78 239.331 1046.06 234.24 1046.06 227.498C1046.06 220.755 1043.92 215.733 1039.66 212.43C1035.39 209.128 1030.78 207.477 1025.83 207.477C1020.87 207.477 1016.26 209.197 1012 212.637C1007.73 216.077 1005.6 221.168 1005.6 227.91C1005.6 234.515 1007.8 239.538 1012.21 242.978ZM1242.66 242.771L1246.37 240.088C1251.05 237.336 1254.36 235.96 1256.28 235.96C1260.55 235.96 1265.16 239.813 1270.11 247.518C1273.14 252.334 1274.65 256.187 1274.65 259.077C1274.65 261.966 1273.69 264.374 1271.76 266.301C1269.97 268.227 1267.84 269.947 1265.36 271.461C1262.89 272.974 1260.48 274.419 1258.14 275.795C1255.94 277.171 1251.33 278.96 1244.31 281.162C1237.29 283.363 1230.48 284.464 1223.88 284.464C1217.41 284.464 1210.8 283.638 1204.06 281.987C1197.46 280.198 1190.58 277.309 1183.42 273.318C1176.4 269.19 1170.08 264.237 1164.43 258.458C1158.79 252.541 1154.11 245.042 1150.4 235.96C1146.82 226.741 1145.03 216.765 1145.03 206.032C1145.03 195.299 1146.82 185.598 1150.4 176.929C1153.98 168.123 1158.52 160.899 1164.02 155.257C1169.66 149.478 1176.06 144.662 1183.22 140.809C1196.7 133.379 1210.25 129.664 1223.88 129.664C1230.34 129.664 1236.88 130.696 1243.48 132.76C1250.23 134.686 1255.32 136.682 1258.76 138.745L1263.71 141.635C1266.19 143.149 1268.12 144.387 1269.49 145.35C1273.07 148.24 1274.86 151.542 1274.86 155.257C1274.86 158.835 1273.41 162.619 1270.52 166.609C1265.16 174.04 1260.34 177.755 1256.08 177.755C1253.6 177.755 1250.09 176.241 1245.55 173.214C1239.77 168.536 1232.06 166.197 1222.43 166.197C1213.49 166.197 1204.68 169.293 1196.01 175.485C1191.88 178.512 1188.44 182.778 1185.69 188.281C1182.94 193.786 1181.56 200.046 1181.56 207.064C1181.56 213.944 1182.94 220.136 1185.69 225.64C1188.44 231.144 1191.95 235.478 1196.22 238.643C1204.61 244.698 1213.35 247.725 1222.43 247.725C1226.7 247.725 1230.69 247.174 1234.4 246.074C1238.26 244.973 1241.01 243.872 1242.66 242.771ZM1354.77 185.186C1355.6 177.48 1361.03 173.627 1371.08 173.627C1376.44 173.627 1380.43 174.04 1383.05 174.865C1385.66 175.691 1387.45 177.136 1388.41 179.2C1389.52 181.264 1390.13 183.122 1390.27 184.773C1390.55 186.286 1390.69 188.626 1390.69 191.79V264.03C1390.69 267.195 1390.55 269.603 1390.27 271.254C1390.13 272.768 1389.58 274.557 1388.62 276.621C1386.69 280.198 1381.95 281.987 1374.38 281.987C1366.95 281.987 1361.93 281.093 1359.31 279.304C1356.84 277.378 1355.39 274.626 1354.98 271.048C1349.89 278.341 1341.36 281.987 1329.38 281.987C1317.55 281.987 1306.54 276.552 1296.36 265.682C1286.18 254.811 1281.09 242.221 1281.09 227.91C1281.09 213.462 1286.18 200.872 1296.36 190.139C1306.68 179.269 1317.96 173.834 1330.21 173.834C1334.89 173.834 1339.15 174.659 1343.01 176.31C1346.86 177.962 1349.54 179.544 1351.06 181.057C1352.57 182.433 1353.81 183.809 1354.77 185.186ZM1317.21 228.117C1317.21 232.658 1319 236.786 1322.57 240.501C1326.15 244.078 1330.49 245.867 1335.58 245.867C1340.67 245.867 1344.86 244.01 1348.17 240.294C1351.61 236.579 1353.33 232.52 1353.33 228.117C1353.33 223.576 1351.68 219.379 1348.37 215.526C1345.21 211.674 1340.87 209.747 1335.37 209.747C1330 209.747 1325.6 211.674 1322.16 215.526C1318.86 219.379 1317.21 223.576 1317.21 228.117ZM1407.14 311.915V191.378C1407.14 188.213 1407.2 185.874 1407.34 184.36C1407.62 182.846 1408.24 181.126 1409.2 179.2C1411.13 175.485 1415.74 173.627 1423.03 173.627C1430.32 173.627 1435.21 174.59 1437.68 176.517C1440.3 178.306 1441.81 180.989 1442.22 184.566C1447.45 177.411 1455.64 173.834 1466.79 173.834C1478.07 173.834 1488.73 179.131 1498.78 189.726C1508.82 200.322 1513.84 212.637 1513.84 226.672C1513.84 240.707 1508.82 253.022 1498.78 263.618C1488.87 274.213 1478.28 279.51 1466.99 279.51C1455.71 279.51 1447.52 276.346 1442.43 270.016V311.709C1442.43 314.874 1442.29 317.213 1442.02 318.726C1441.88 320.24 1441.26 321.96 1440.16 323.886C1439.2 325.95 1437.48 327.395 1435 328.221C1432.52 329.046 1429.15 329.459 1424.89 329.459C1420.62 329.459 1417.18 329.046 1414.57 328.221C1412.09 327.395 1410.3 326.019 1409.2 324.093C1408.24 322.166 1407.62 320.446 1407.34 318.933C1407.2 317.419 1407.14 315.08 1407.14 311.915ZM1448 214.701C1444.84 218.416 1443.26 222.475 1443.26 226.878C1443.26 231.281 1444.84 235.341 1448 239.056C1451.31 242.634 1455.43 244.422 1460.39 244.422C1465.48 244.422 1469.74 242.634 1473.18 239.056C1476.76 235.478 1478.55 231.419 1478.55 226.878C1478.55 222.338 1476.9 218.278 1473.6 214.701C1470.29 210.986 1465.96 209.128 1460.59 209.128C1455.36 209.128 1451.17 210.986 1448 214.701ZM1527.27 191.79C1527.27 188.626 1527.34 186.286 1527.47 184.773C1527.75 183.122 1528.37 181.264 1529.33 179.2C1531.26 175.622 1536.62 173.834 1545.43 173.834C1552.04 173.834 1556.71 175.003 1559.47 177.342C1561.8 179.269 1563.04 182.227 1563.18 186.218C1563.32 187.593 1563.39 189.589 1563.39 192.203V264.443C1563.39 267.608 1563.25 270.016 1562.97 271.667C1562.84 273.181 1562.22 274.97 1561.12 277.034C1559.33 280.611 1554.03 282.4 1545.22 282.4C1536.56 282.4 1531.26 280.542 1529.33 276.827C1528.37 274.763 1527.75 272.974 1527.47 271.461C1527.34 269.947 1527.27 267.539 1527.27 264.237V191.79ZM1561.12 153.606C1560.15 155.533 1558.36 156.909 1555.75 157.734C1553.14 158.56 1549.63 158.973 1545.22 158.973C1540.96 158.973 1537.52 158.56 1534.9 157.734C1532.29 156.909 1530.43 155.464 1529.33 153.4C1528.37 151.336 1527.75 149.547 1527.47 148.034C1527.34 146.382 1527.27 143.974 1527.27 140.809C1527.27 137.645 1527.34 135.305 1527.47 133.792C1527.75 132.141 1528.37 130.352 1529.33 128.425C1531.26 124.71 1536.62 122.853 1545.43 122.853C1554.1 122.853 1559.33 124.71 1561.12 128.425C1562.22 130.49 1562.84 132.347 1562.97 133.998C1563.25 135.512 1563.39 137.851 1563.39 141.016C1563.39 144.181 1563.25 146.589 1562.97 148.24C1562.84 149.753 1562.22 151.542 1561.12 153.606ZM1639.52 173.834C1651.77 173.834 1662.99 179.269 1673.17 190.139C1683.49 201.009 1688.65 213.669 1688.65 228.117C1688.65 242.427 1683.56 255.018 1673.37 265.888C1663.19 276.621 1652.25 281.987 1640.56 281.987C1628.86 281.987 1620.54 278.685 1615.58 272.08C1614.48 278.822 1608.56 282.194 1597.83 282.194C1589.16 282.194 1583.87 280.336 1581.94 276.621C1580.98 274.557 1580.36 272.768 1580.08 271.254C1579.94 269.603 1579.88 267.195 1579.88 264.03V140.809C1579.88 137.645 1579.94 135.305 1580.08 133.792C1580.36 132.141 1580.98 130.352 1581.94 128.425C1583.87 124.71 1589.23 122.853 1598.04 122.853C1606.71 122.853 1611.94 124.71 1613.72 128.425C1614.83 130.49 1615.44 132.347 1615.58 133.998C1615.86 135.512 1616 137.851 1616 141.016V183.947C1621.5 177.205 1629.34 173.834 1639.52 173.834ZM1621.36 240.501C1624.8 244.216 1629.07 246.074 1634.16 246.074C1639.25 246.074 1643.58 244.216 1647.16 240.501C1650.74 236.786 1652.53 232.658 1652.53 228.117C1652.53 223.576 1650.88 219.448 1647.57 215.733C1644.27 211.88 1639.87 209.954 1634.36 209.954C1628.86 209.954 1624.46 211.88 1621.16 215.733C1617.99 219.586 1616.41 223.782 1616.41 228.323C1616.41 232.726 1618.06 236.786 1621.36 240.501ZM1772.61 185.186C1773.44 177.48 1778.87 173.627 1788.92 173.627C1794.28 173.627 1798.27 174.04 1800.89 174.865C1803.5 175.691 1805.29 177.136 1806.25 179.2C1807.35 181.264 1807.97 183.122 1808.11 184.773C1808.39 186.286 1808.52 188.626 1808.52 191.79V264.03C1808.52 267.195 1808.39 269.603 1808.11 271.254C1807.97 272.768 1807.42 274.557 1806.46 276.621C1804.53 280.198 1799.79 281.987 1792.22 281.987C1784.79 281.987 1779.77 281.093 1777.15 279.304C1774.67 277.378 1773.23 274.626 1772.82 271.048C1767.73 278.341 1759.19 281.987 1747.22 281.987C1735.39 281.987 1724.38 276.552 1714.2 265.682C1704.02 254.811 1698.93 242.221 1698.93 227.91C1698.93 213.462 1704.02 200.872 1714.2 190.139C1724.52 179.269 1735.8 173.834 1748.05 173.834C1752.73 173.834 1756.99 174.659 1760.85 176.31C1764.7 177.962 1767.38 179.544 1768.9 181.057C1770.41 182.433 1771.65 183.809 1772.61 185.186ZM1735.05 228.117C1735.05 232.658 1736.83 236.786 1740.41 240.501C1743.99 244.078 1748.32 245.867 1753.42 245.867C1758.51 245.867 1762.7 244.01 1766.01 240.294C1769.45 236.579 1771.17 232.52 1771.17 228.117C1771.17 223.576 1769.51 219.379 1766.21 215.526C1763.05 211.674 1758.71 209.747 1753.21 209.747C1747.84 209.747 1743.44 211.674 1740 215.526C1736.7 219.379 1735.05 223.576 1735.05 228.117Z" fill="white"/>
</svg>
