<svg width="176" height="40" viewBox="0 0 176 40" fill="none" xmlns="http://www.w3.org/2000/svg">
<rect width="40" height="40" rx="6.09819" fill="#DD4319"/>
<path d="M20.7126 9.28297C15.228 9.27625 9.74615 11.652 7.06996 17.0777C10.2715 16.5317 13.2852 17.4104 16.1344 18.9371C19.9726 16.7722 24.0493 16.4834 27.8649 17.9049C28.4399 15.6606 30.1946 14.4054 32.7577 13.8307C29.8038 10.9305 25.2573 9.28877 20.7127 9.28308L20.7126 9.28297ZM24.657 18.2193C24.0335 18.2193 23.5308 18.725 23.5308 19.3729C23.5308 20.0209 24.0335 20.5266 24.657 20.5266C25.2805 20.5266 25.7833 20.0209 25.7833 19.373C25.7833 18.7252 25.2806 18.2195 24.657 18.2195V18.2193ZM20.1282 18.4483C19.5047 18.4483 19.002 18.954 19.002 19.6019C19.002 20.2497 19.5047 20.7554 20.1282 20.7554C20.7517 20.7554 21.2545 20.2497 21.2545 19.6018C21.2545 18.9537 20.7518 18.4482 20.1282 18.4482V18.4483ZM31.1461 18.6774C30.9184 18.6834 30.666 18.7503 30.3838 18.8858C29.7389 19.1956 28.9753 19.9109 28.2715 21.1178L28.0938 21.422L27.7469 21.3638C26.2642 21.117 25.1855 21.3534 24.2435 22.0098C23.5131 22.5187 22.86 23.3158 22.2422 24.3819C23.4404 24.1107 24.6773 23.9078 25.9883 23.9273L26.0772 23.9291C26.47 23.6268 26.8802 23.2557 27.3213 22.7908C27.0232 23.5019 26.7282 24.2209 26.3404 24.864C26.3394 24.8658 26.3379 24.8673 26.337 24.8691C25.7431 25.9597 24.5093 26.8418 23.2967 27.5881C24.9388 28.7803 26.684 29.0407 28.2185 28.6221C29.9279 28.1557 31.3836 26.8401 32.0776 24.9221C32.6732 23.276 32.8529 21.9106 32.7646 20.8958C32.6763 19.8809 32.3238 19.2391 31.9185 18.9338C31.716 18.7813 31.4942 18.6918 31.2419 18.6792C31.21 18.6774 31.1781 18.6769 31.1462 18.6776L31.1461 18.6774ZM8.86076 20.6785C7.94737 20.7039 7.42258 21.0551 7.15013 21.6219C6.85941 22.2265 6.87177 23.1953 7.41329 24.4058C7.9548 25.6164 9.01208 27.0428 10.686 28.504C12.6298 30.2007 15.0478 30.7598 17.2246 30.2146C19.2255 29.7135 21.0345 28.2843 22.0986 25.8448C20.9673 25.8202 19.9291 25.7757 19.0002 25.5014C18.9931 25.4997 18.9865 25.4978 18.9796 25.4962C17.3312 25.1026 16.344 24.2871 15.0848 23.0404C16.0345 23.5426 16.8602 23.8197 17.6004 23.9479L17.6074 23.9444C19.0162 23.1227 19.7022 22.8075 20.8613 22.4593C18.2098 20.7257 15.9242 21.0008 13.7946 22.2797L13.6733 22.3532H13.381L13.2545 22.273C11.524 21.1623 10.0789 20.6983 9.04866 20.6785C8.986 20.6771 8.92331 20.6771 8.86065 20.6785L8.86076 20.6785Z" fill="white"/>
<path d="M64.24 19.14C65.0267 20.0733 65.42 21.12 65.42 22.28C65.3933 23.6133 64.9333 24.7333 64.04 25.64C63.16 26.5333 62.0867 26.98 60.82 26.98H55.56C54.6267 26.98 54.08 26.7267 53.92 26.22C53.84 25.9933 53.8 25.6467 53.8 25.18V14.08C53.8 13.76 53.8067 13.5267 53.82 13.38C53.8467 13.2333 53.9133 13.06 54.02 12.86C54.2067 12.5 54.7267 12.32 55.58 12.32H60.62C61.8467 12.32 62.8733 12.7467 63.7 13.6C64.5667 14.4667 65 15.5067 65 16.72C65 17.6 64.7467 18.4067 64.24 19.14ZM61.88 22.08C61.88 21.76 61.84 21.5067 61.76 21.32C61.6933 21.1333 61.5733 21 61.4 20.92C61.1333 20.8133 60.76 20.76 60.28 20.76C59.8 20.76 59.44 20.6667 59.2 20.48C58.96 20.2933 58.84 19.9133 58.84 19.34C58.84 18.7533 58.96 18.3667 59.2 18.18C59.4533 17.9933 59.8667 17.9 60.44 17.9C60.9733 17.9 61.2933 17.76 61.4 17.48C61.44 17.3333 61.46 17.0933 61.46 16.76C61.46 16.4267 61.3467 16.1933 61.12 16.06C60.9067 15.9267 60.58 15.86 60.14 15.86H57.34V23.44H60.62C61.46 23.44 61.88 22.9867 61.88 22.08ZM66.7297 18.22C66.7297 17.9133 66.7364 17.6867 66.7497 17.54C66.7764 17.38 66.8364 17.2 66.9297 17C67.1164 16.6533 67.6364 16.48 68.4897 16.48C69.1297 16.48 69.583 16.5933 69.8497 16.82C70.0764 17.0067 70.1964 17.2933 70.2097 17.68C70.223 17.8133 70.2297 18.0067 70.2297 18.26V25.26C70.2297 25.5667 70.2164 25.8 70.1897 25.96C70.1764 26.1067 70.1164 26.28 70.0097 26.48C69.8364 26.8267 69.323 27 68.4697 27C67.6297 27 67.1164 26.82 66.9297 26.46C66.8364 26.26 66.7764 26.0867 66.7497 25.94C66.7364 25.7933 66.7297 25.56 66.7297 25.24V18.22ZM70.0097 14.52C69.9164 14.7067 69.743 14.84 69.4897 14.92C69.2364 15 68.8964 15.04 68.4697 15.04C68.0564 15.04 67.723 15 67.4697 14.92C67.2164 14.84 67.0364 14.7 66.9297 14.5C66.8364 14.3 66.7764 14.1267 66.7497 13.98C66.7364 13.82 66.7297 13.5867 66.7297 13.28C66.7297 12.9733 66.7364 12.7467 66.7497 12.6C66.7764 12.44 66.8364 12.2667 66.9297 12.08C67.1164 11.72 67.6364 11.54 68.4897 11.54C69.3297 11.54 69.8364 11.72 70.0097 12.08C70.1164 12.28 70.1764 12.46 70.1897 12.62C70.2164 12.7667 70.2297 12.9933 70.2297 13.3C70.2297 13.6067 70.2164 13.84 70.1897 14C70.1764 14.1467 70.1164 14.32 70.0097 14.52ZM75.1273 21.74C75.1273 22.3 75.314 22.74 75.6873 23.06C76.0607 23.3667 76.454 23.52 76.8673 23.52C77.294 23.52 77.6873 23.4 78.0473 23.16C78.4207 22.9067 78.7207 22.78 78.9473 22.78C79.3473 22.78 79.834 23.1333 80.4073 23.84C80.714 24.2267 80.8673 24.5733 80.8673 24.88C80.8673 25.3867 80.5007 25.86 79.7673 26.3C79.0073 26.8333 78.074 27.1 76.9673 27.1C75.7273 27.1 74.534 26.6533 73.3873 25.76C72.8407 25.3333 72.394 24.7667 72.0473 24.06C71.7007 23.34 71.5273 22.5533 71.5273 21.7C71.5273 20.8333 71.7007 20.0533 72.0473 19.36C72.394 18.6533 72.8407 18.0867 73.3873 17.66C74.494 16.78 75.674 16.34 76.9273 16.34C77.434 16.34 77.9273 16.4133 78.4073 16.56C78.8873 16.6933 79.2407 16.8267 79.4673 16.96L79.7873 17.16C80.0273 17.32 80.214 17.4467 80.3473 17.54C80.694 17.8067 80.8673 18.1133 80.8673 18.46C80.8673 18.7933 80.7273 19.1733 80.4473 19.6C79.9673 20.3333 79.5073 20.7 79.0673 20.7C78.814 20.7 78.454 20.5533 77.9873 20.26C77.7473 20.0333 77.4007 19.92 76.9473 19.92C76.5073 19.92 76.094 20.08 75.7073 20.4C75.3207 20.72 75.1273 21.1667 75.1273 21.74ZM87.8822 16.5C89.2155 16.5 90.3222 17.0067 91.2022 18.02C92.0955 19.0333 92.5422 20.2733 92.5422 21.74V25.26C92.5422 25.5667 92.5289 25.8 92.5022 25.96C92.4889 26.1067 92.4289 26.28 92.3222 26.48C92.1489 26.8267 91.6355 27 90.7822 27C89.9689 27 89.4622 26.8267 89.2622 26.48C89.1555 26.28 89.0889 26.1 89.0622 25.94C89.0489 25.78 89.0422 25.54 89.0422 25.22V21.72C89.0422 21.1733 88.8889 20.7467 88.5822 20.44C88.2755 20.1333 87.8822 19.98 87.4022 19.98C86.9355 19.98 86.5222 20.1267 86.1622 20.42C85.8022 20.7 85.5955 21.02 85.5422 21.38V25.26C85.5422 25.5667 85.5289 25.8 85.5022 25.96C85.4889 26.1067 85.4289 26.28 85.3222 26.48C85.1489 26.8267 84.6355 27 83.7822 27C82.9422 27 82.4289 26.82 82.2422 26.46C82.1489 26.26 82.0889 26.0867 82.0622 25.94C82.0489 25.7933 82.0422 25.56 82.0422 25.24V13.28C82.0422 12.9733 82.0489 12.7467 82.0622 12.6C82.0889 12.44 82.1489 12.2667 82.2422 12.08C82.4289 11.72 82.9489 11.54 83.8022 11.54C84.6422 11.54 85.1489 11.72 85.3222 12.08C85.4289 12.28 85.4889 12.46 85.5022 12.62C85.5289 12.7667 85.5422 12.9933 85.5422 13.3V17.72C86.2089 16.9067 86.9889 16.5 87.8822 16.5ZM93.8516 21.74C93.8516 20.14 94.4116 18.82 95.5316 17.78C96.6516 16.74 97.9316 16.22 99.3716 16.22C100.812 16.22 102.085 16.74 103.192 17.78C104.298 18.8067 104.852 20.12 104.852 21.72C104.852 22.8267 104.565 23.8133 103.992 24.68C103.418 25.5333 102.718 26.1667 101.892 26.58C101.078 26.98 100.232 27.18 99.3516 27.18C98.4716 27.18 97.6182 26.9667 96.7916 26.54C95.9649 26.1 95.2649 25.46 94.6916 24.62C94.1316 23.7667 93.8516 22.8067 93.8516 21.74ZM98.0316 23.18C98.4582 23.5 98.8916 23.66 99.3316 23.66C99.7716 23.66 100.212 23.4933 100.652 23.16C101.092 22.8267 101.312 22.3333 101.312 21.68C101.312 21.0267 101.105 20.54 100.692 20.22C100.278 19.9 99.8316 19.74 99.3516 19.74C98.8716 19.74 98.4249 19.9067 98.0116 20.24C97.5982 20.5733 97.3916 21.0667 97.3916 21.72C97.3916 22.36 97.6049 22.8467 98.0316 23.18ZM120.362 23.16L120.722 22.9C121.176 22.6333 121.496 22.5 121.682 22.5C122.096 22.5 122.542 22.8733 123.022 23.62C123.316 24.0867 123.462 24.46 123.462 24.74C123.462 25.02 123.369 25.2533 123.182 25.44C123.009 25.6267 122.802 25.7933 122.562 25.94C122.322 26.0867 122.089 26.2267 121.862 26.36C121.649 26.4933 121.202 26.6667 120.522 26.88C119.842 27.0933 119.182 27.2 118.542 27.2C117.916 27.2 117.276 27.12 116.622 26.96C115.982 26.7867 115.316 26.5067 114.622 26.12C113.942 25.72 113.329 25.24 112.782 24.68C112.236 24.1067 111.782 23.38 111.422 22.5C111.076 21.6067 110.902 20.64 110.902 19.6C110.902 18.56 111.076 17.62 111.422 16.78C111.769 15.9267 112.209 15.2267 112.742 14.68C113.289 14.12 113.909 13.6533 114.602 13.28C115.909 12.56 117.222 12.2 118.542 12.2C119.169 12.2 119.802 12.3 120.442 12.5C121.096 12.6867 121.589 12.88 121.922 13.08L122.402 13.36C122.642 13.5067 122.829 13.6267 122.962 13.72C123.309 14 123.482 14.32 123.482 14.68C123.482 15.0267 123.342 15.3933 123.062 15.78C122.542 16.5 122.076 16.86 121.662 16.86C121.422 16.86 121.082 16.7133 120.642 16.42C120.082 15.9667 119.336 15.74 118.402 15.74C117.536 15.74 116.682 16.04 115.842 16.64C115.442 16.9333 115.109 17.3467 114.842 17.88C114.576 18.4133 114.442 19.02 114.442 19.7C114.442 20.3667 114.576 20.9667 114.842 21.5C115.109 22.0333 115.449 22.4533 115.862 22.76C116.676 23.3467 117.522 23.64 118.402 23.64C118.816 23.64 119.202 23.5867 119.562 23.48C119.936 23.3733 120.202 23.2667 120.362 23.16ZM131.226 17.58C131.306 16.8333 131.833 16.46 132.806 16.46C133.326 16.46 133.713 16.5 133.966 16.58C134.219 16.66 134.393 16.8 134.486 17C134.593 17.2 134.653 17.38 134.666 17.54C134.693 17.6867 134.706 17.9133 134.706 18.22V25.22C134.706 25.5267 134.693 25.76 134.666 25.92C134.653 26.0667 134.599 26.24 134.506 26.44C134.319 26.7867 133.859 26.96 133.126 26.96C132.406 26.96 131.919 26.8733 131.666 26.7C131.426 26.5133 131.286 26.2467 131.246 25.9C130.753 26.6067 129.926 26.96 128.766 26.96C127.619 26.96 126.553 26.4333 125.566 25.38C124.579 24.3267 124.086 23.1067 124.086 21.72C124.086 20.32 124.579 19.1 125.566 18.06C126.566 17.0067 127.659 16.48 128.846 16.48C129.299 16.48 129.713 16.56 130.086 16.72C130.459 16.88 130.719 17.0333 130.866 17.18C131.013 17.3133 131.133 17.4467 131.226 17.58ZM127.586 21.74C127.586 22.18 127.759 22.58 128.106 22.94C128.453 23.2867 128.873 23.46 129.366 23.46C129.859 23.46 130.266 23.28 130.586 22.92C130.919 22.56 131.086 22.1667 131.086 21.74C131.086 21.3 130.926 20.8933 130.606 20.52C130.299 20.1467 129.879 19.96 129.346 19.96C128.826 19.96 128.399 20.1467 128.066 20.52C127.746 20.8933 127.586 21.3 127.586 21.74ZM136.3 29.86V18.18C136.3 17.8733 136.307 17.6467 136.32 17.5C136.347 17.3533 136.407 17.1867 136.5 17C136.687 16.64 137.133 16.46 137.84 16.46C138.547 16.46 139.02 16.5533 139.26 16.74C139.513 16.9133 139.66 17.1733 139.7 17.52C140.207 16.8267 141 16.48 142.08 16.48C143.173 16.48 144.207 16.9933 145.18 18.02C146.153 19.0467 146.64 20.24 146.64 21.6C146.64 22.96 146.153 24.1533 145.18 25.18C144.22 26.2067 143.193 26.72 142.1 26.72C141.007 26.72 140.213 26.4133 139.72 25.8V29.84C139.72 30.1467 139.707 30.3733 139.68 30.52C139.667 30.6667 139.607 30.8333 139.5 31.02C139.407 31.22 139.24 31.36 139 31.44C138.76 31.52 138.433 31.56 138.02 31.56C137.607 31.56 137.273 31.52 137.02 31.44C136.78 31.36 136.607 31.2267 136.5 31.04C136.407 30.8533 136.347 30.6867 136.32 30.54C136.307 30.3933 136.3 30.1667 136.3 29.86ZM140.26 20.44C139.953 20.8 139.8 21.1933 139.8 21.62C139.8 22.0467 139.953 22.44 140.26 22.8C140.58 23.1467 140.98 23.32 141.46 23.32C141.953 23.32 142.367 23.1467 142.7 22.8C143.047 22.4533 143.22 22.06 143.22 21.62C143.22 21.18 143.06 20.7867 142.74 20.44C142.42 20.08 142 19.9 141.48 19.9C140.973 19.9 140.567 20.08 140.26 20.44ZM147.941 18.22C147.941 17.9133 147.947 17.6867 147.961 17.54C147.987 17.38 148.047 17.2 148.141 17C148.327 16.6533 148.847 16.48 149.701 16.48C150.341 16.48 150.794 16.5933 151.061 16.82C151.287 17.0067 151.407 17.2933 151.421 17.68C151.434 17.8133 151.441 18.0067 151.441 18.26V25.26C151.441 25.5667 151.427 25.8 151.401 25.96C151.387 26.1067 151.327 26.28 151.221 26.48C151.047 26.8267 150.534 27 149.681 27C148.841 27 148.327 26.82 148.141 26.46C148.047 26.26 147.987 26.0867 147.961 25.94C147.947 25.7933 147.941 25.56 147.941 25.24V18.22ZM151.221 14.52C151.127 14.7067 150.954 14.84 150.701 14.92C150.447 15 150.107 15.04 149.681 15.04C149.267 15.04 148.934 15 148.681 14.92C148.427 14.84 148.247 14.7 148.141 14.5C148.047 14.3 147.987 14.1267 147.961 13.98C147.947 13.82 147.941 13.5867 147.941 13.28C147.941 12.9733 147.947 12.7467 147.961 12.6C147.987 12.44 148.047 12.2667 148.141 12.08C148.327 11.72 148.847 11.54 149.701 11.54C150.541 11.54 151.047 11.72 151.221 12.08C151.327 12.28 151.387 12.46 151.401 12.62C151.427 12.7667 151.441 12.9933 151.441 13.3C151.441 13.6067 151.427 13.84 151.401 14C151.387 14.1467 151.327 14.32 151.221 14.52ZM158.818 16.48C160.005 16.48 161.092 17.0067 162.078 18.06C163.078 19.1133 163.578 20.34 163.578 21.74C163.578 23.1267 163.085 24.3467 162.098 25.4C161.112 26.44 160.052 26.96 158.918 26.96C157.785 26.96 156.978 26.64 156.498 26C156.392 26.6533 155.818 26.98 154.778 26.98C153.938 26.98 153.425 26.8 153.238 26.44C153.145 26.24 153.085 26.0667 153.058 25.92C153.045 25.76 153.038 25.5267 153.038 25.22V13.28C153.038 12.9733 153.045 12.7467 153.058 12.6C153.085 12.44 153.145 12.2667 153.238 12.08C153.425 11.72 153.945 11.54 154.798 11.54C155.638 11.54 156.145 11.72 156.318 12.08C156.425 12.28 156.485 12.46 156.498 12.62C156.525 12.7667 156.538 12.9933 156.538 13.3V17.46C157.072 16.8067 157.832 16.48 158.818 16.48ZM157.058 22.94C157.392 23.3 157.805 23.48 158.298 23.48C158.792 23.48 159.212 23.3 159.558 22.94C159.905 22.58 160.078 22.18 160.078 21.74C160.078 21.3 159.918 20.9 159.598 20.54C159.278 20.1667 158.852 19.98 158.318 19.98C157.785 19.98 157.358 20.1667 157.038 20.54C156.732 20.9133 156.578 21.32 156.578 21.76C156.578 22.1867 156.738 22.58 157.058 22.94ZM171.714 17.58C171.794 16.8333 172.321 16.46 173.294 16.46C173.814 16.46 174.201 16.5 174.454 16.58C174.708 16.66 174.881 16.8 174.974 17C175.081 17.2 175.141 17.38 175.154 17.54C175.181 17.6867 175.194 17.9133 175.194 18.22V25.22C175.194 25.5267 175.181 25.76 175.154 25.92C175.141 26.0667 175.088 26.24 174.994 26.44C174.808 26.7867 174.348 26.96 173.614 26.96C172.894 26.96 172.408 26.8733 172.154 26.7C171.914 26.5133 171.774 26.2467 171.734 25.9C171.241 26.6067 170.414 26.96 169.254 26.96C168.108 26.96 167.041 26.4333 166.054 25.38C165.068 24.3267 164.574 23.1067 164.574 21.72C164.574 20.32 165.068 19.1 166.054 18.06C167.054 17.0067 168.148 16.48 169.334 16.48C169.788 16.48 170.201 16.56 170.574 16.72C170.948 16.88 171.208 17.0333 171.354 17.18C171.501 17.3133 171.621 17.4467 171.714 17.58ZM168.074 21.74C168.074 22.18 168.248 22.58 168.594 22.94C168.941 23.2867 169.361 23.46 169.854 23.46C170.348 23.46 170.754 23.28 171.074 22.92C171.408 22.56 171.574 22.1667 171.574 21.74C171.574 21.3 171.414 20.8933 171.094 20.52C170.788 20.1467 170.368 19.96 169.834 19.96C169.314 19.96 168.888 20.1467 168.554 20.52C168.234 20.8933 168.074 21.3 168.074 21.74Z" fill="#524E4E"/>
</svg>
